<svg width="14" height="14" viewBox="0 0 14 14" fill="none" xmlns="http://www.w3.org/2000/svg">
<path d="M6.66667 0C2.98667 0 0 2.98667 0 6.66667C0 10.3467 2.98667 13.3333 6.66667 13.3333C10.3467 13.3333 13.3333 10.3467 13.3333 6.66667C13.3333 2.98667 10.3467 0 6.66667 0ZM6.66667 2C7.77333 2 8.66667 2.89333 8.66667 4C8.66667 5.10667 7.77333 6 6.66667 6C5.56 6 4.66667 5.10667 4.66667 4C4.66667 2.89333 5.56 2 6.66667 2ZM6.66667 11.4667C5 11.4667 3.52667 10.6133 2.66667 9.32C2.68667 7.99333 5.33333 7.26667 6.66667 7.26667C7.99333 7.26667 10.6467 7.99333 10.6667 9.32C9.80667 10.6133 8.33333 11.4667 6.66667 11.4667Z" fill="#C2C2C2"/>
</svg>
