<svg width="132" height="24" viewBox="0 0 132 24" fill="none" xmlns="http://www.w3.org/2000/svg">
<path d="M4.16 0.576V6.976H5.168C5.872 5.856 7.248 5.088 9.104 5.088C13.04 5.088 15.456 8.288 15.456 12.4C15.456 16.88 12.8 19.728 9.136 19.728C7.248 19.728 5.872 18.992 5.2 17.808H4.16V19.456H0V0.576H4.16ZM7.744 15.92C9.904 15.92 11.328 14.384 11.328 12.384C11.328 10.416 9.904 8.88 7.744 8.88C5.552 8.88 4.16 10.416 4.16 12.384C4.16 14.384 5.552 15.92 7.744 15.92Z" fill="black"/>
<path d="M33.856 9.168V5.36H35.824V2.096H39.952V5.36H43.504V9.168H39.952V13.52C39.952 15.024 40.384 15.648 41.872 15.648H43.52V19.456H41.744C37.392 19.456 35.84 17.648 35.84 13.568V9.168H33.856Z" fill="black"/>
<path d="M51.04 10.752H54.4V10.704C54.4 9.152 53.408 8.48 51.936 8.48C50.464 8.48 49.712 9.184 49.472 10.144H45.472C45.744 7.216 47.776 5.088 52.016 5.088C56.288 5.088 58.56 7.248 58.56 10.784V19.456H54.4V18.224H53.392C52.736 18.992 51.744 19.728 49.776 19.728C46.816 19.728 45.296 17.76 45.296 15.264C45.296 12.416 47.12 10.752 51.04 10.752ZM51.584 16.304C52.592 16.304 53.52 16.112 54.4 15.568V13.44H51.552C50.208 13.44 49.424 13.936 49.424 14.864C49.424 15.808 50.224 16.304 51.584 16.304Z" fill="black"/>
<path d="M60.944 19.456V5.36H65.104V6.56H66.112C66.848 5.68 67.696 5.088 69.536 5.088C72.688 5.088 74.384 7.136 74.384 10.672V19.456H70.256V11.568C70.256 9.792 69.488 8.88 67.744 8.88C66.48 8.88 65.696 9.232 65.12 9.68V19.456H60.944Z" fill="black"/>
<path d="M78.848 0C80.192 0 81.12 0.895999 81.12 2.192C81.12 3.392 80.192 4.32 78.848 4.32C77.504 4.32 76.544 3.392 76.544 2.192C76.544 0.895999 77.504 0 78.848 0ZM80.928 5.36V19.456H76.768V5.36H80.928Z" fill="black"/>
<path d="M93.264 6.976H94.272V5.36H98.432V23.552H94.272V17.808H93.232C92.544 18.992 91.184 19.728 89.296 19.728C85.632 19.728 82.976 16.88 82.976 12.4C82.976 8.288 85.392 5.088 89.328 5.088C91.184 5.088 92.56 5.856 93.264 6.976ZM90.688 15.92C92.88 15.92 94.272 14.384 94.272 12.384C94.272 10.416 92.88 8.88 90.688 8.88C88.528 8.88 87.104 10.416 87.104 12.384C87.104 14.384 88.528 15.92 90.688 15.92Z" fill="black"/>
<path d="M100.816 14.144V5.36H104.944V13.248C104.944 15.024 105.712 15.936 107.456 15.936C108.72 15.936 109.504 15.584 110.08 15.136V5.36H114.24V19.456H110.08V18.256H109.072C108.336 19.136 107.488 19.728 105.648 19.728C102.512 19.728 100.816 17.68 100.816 14.144Z" fill="black"/>
<path d="M116.304 12.384C116.304 8.272 119.312 5.072 123.856 5.072C128.56 5.072 131.36 8.304 131.36 12.24C131.36 12.672 131.328 13.056 131.312 13.328H120.304C120.544 15.216 121.808 16.304 123.856 16.304C125.408 16.304 126.544 15.76 127.008 14.752H131.168C130.352 17.632 127.808 19.712 123.856 19.712C119.312 19.728 116.304 16.496 116.304 12.384ZM127.168 10.688C126.736 9.408 125.632 8.464 123.856 8.464C122.112 8.464 120.896 9.36 120.464 10.688H127.168Z" fill="black"/>
<path d="M24.016 18.688C23.92 17.904 24.48 17.184 25.28 17.088C26.064 16.992 26.784 17.552 26.88 18.352C26.976 19.136 26.416 19.856 25.616 19.952C25.552 19.952 25.504 19.968 25.44 19.968C24.72 19.952 24.096 19.408 24.016 18.688ZM22.016 19.504C21.264 19.216 20.896 18.384 21.184 17.648C21.472 16.896 22.304 16.528 23.04 16.816C23.776 17.104 24.16 17.936 23.872 18.672C23.648 19.248 23.104 19.6 22.528 19.6C22.352 19.6 22.176 19.568 22.016 19.504ZM27.008 18.288C26.56 17.632 26.72 16.736 27.376 16.288C28.032 15.84 28.928 16 29.376 16.656C29.824 17.312 29.664 18.208 29.008 18.656C28.752 18.832 28.464 18.912 28.192 18.912C27.728 18.912 27.28 18.688 27.008 18.288ZM19.024 17.44C18.496 16.848 18.544 15.936 19.136 15.408C19.728 14.88 20.64 14.928 21.168 15.52C21.696 16.112 21.648 17.024 21.056 17.552C20.784 17.792 20.448 17.92 20.096 17.92C19.696 17.936 19.312 17.76 19.024 17.44ZM29.472 16.544C28.768 16.176 28.496 15.296 28.864 14.592C29.232 13.888 30.112 13.616 30.816 13.984C31.52 14.352 31.792 15.232 31.424 15.936C31.168 16.432 30.672 16.704 30.144 16.704C29.904 16.704 29.68 16.656 29.472 16.544ZM17.328 14.24C17.136 13.472 17.616 12.688 18.384 12.496C19.152 12.304 19.936 12.784 20.128 13.552C20.32 14.32 19.84 15.104 19.072 15.296C18.96 15.328 18.848 15.344 18.72 15.344C18.08 15.328 17.488 14.896 17.328 14.24ZM29.392 12.416C29.392 12.4 29.392 12.4 29.392 12.416C29.392 12.4 29.392 12.4 29.392 12.416C29.392 11.6 30.032 10.96 30.832 10.96C31.632 10.96 32.272 11.6 32.272 12.4V12.416C32.272 13.216 31.632 13.856 30.832 13.856C30.048 13.856 29.392 13.2 29.392 12.416ZM18.384 12.352C17.616 12.16 17.136 11.376 17.328 10.608C17.52 9.84 18.304 9.36 19.072 9.552C19.84 9.744 20.32 10.512 20.128 11.296C19.968 11.952 19.376 12.4 18.736 12.4C18.608 12.384 18.496 12.384 18.384 12.352ZM28.848 10.208C28.48 9.504 28.736 8.64 29.44 8.256C30.144 7.888 31.008 8.144 31.392 8.848C31.76 9.552 31.504 10.416 30.8 10.8C30.592 10.912 30.352 10.976 30.128 10.976C29.616 10.976 29.12 10.704 28.848 10.208ZM19.136 9.424C18.544 8.896 18.48 7.984 19.008 7.392C19.536 6.8 20.448 6.736 21.04 7.264C21.632 7.792 21.696 8.704 21.168 9.296C20.88 9.616 20.48 9.776 20.08 9.776C19.744 9.776 19.408 9.664 19.136 9.424ZM27.36 8.528C26.704 8.08 26.544 7.184 26.992 6.528C27.44 5.872 28.336 5.712 28.992 6.16C29.648 6.608 29.808 7.504 29.36 8.16C29.088 8.56 28.624 8.784 28.176 8.784C27.888 8.784 27.6 8.704 27.36 8.528ZM21.152 7.184C20.864 6.448 21.248 5.6 21.984 5.328C22.72 5.04 23.552 5.424 23.84 6.16C24.128 6.896 23.744 7.728 23.008 8.016C22.832 8.08 22.672 8.112 22.496 8.112C21.92 8.112 21.376 7.76 21.152 7.184ZM25.248 7.744C24.464 7.648 23.888 6.928 23.984 6.144C24.08 5.36 24.8 4.784 25.584 4.88C26.368 4.976 26.944 5.696 26.848 6.48C26.768 7.216 26.144 7.744 25.424 7.744C25.36 7.744 25.312 7.744 25.248 7.744Z" fill="black"/>
<path d="M22.496 16.24C21.808 15.84 21.568 14.96 21.968 14.272C22.368 13.584 23.248 13.344 23.936 13.744C24.624 14.144 24.864 15.024 24.464 15.712C24.192 16.176 23.712 16.432 23.216 16.432C22.96 16.432 22.72 16.368 22.496 16.24ZM24.944 15.712C24.544 15.024 24.784 14.144 25.472 13.744C26.16 13.344 27.04 13.584 27.44 14.272C27.84 14.96 27.6 15.84 26.912 16.24C26.688 16.368 26.432 16.432 26.192 16.432C25.696 16.432 25.2 16.176 24.944 15.712ZM20.272 12.416C20.272 11.616 20.912 10.976 21.712 10.976C22.512 10.976 23.152 11.616 23.152 12.416C23.152 13.216 22.512 13.856 21.712 13.856C20.928 13.856 20.272 13.216 20.272 12.416ZM26.224 12.448C26.224 12.432 26.224 12.416 26.224 12.4C26.224 11.6 26.864 10.96 27.664 10.96C28.464 10.96 29.104 11.6 29.104 12.4V12.416C29.104 13.216 28.464 13.856 27.664 13.856C26.88 13.856 26.256 13.216 26.224 12.448ZM21.952 10.56C21.552 9.872 21.792 8.992 22.48 8.592C23.168 8.192 24.048 8.432 24.448 9.12C24.848 9.808 24.608 10.688 23.92 11.088C23.696 11.216 23.44 11.28 23.2 11.28C22.704 11.28 22.224 11.024 21.952 10.56ZM25.456 11.072C24.768 10.672 24.528 9.792 24.928 9.104C25.328 8.416 26.208 8.176 26.896 8.576C27.584 8.976 27.824 9.856 27.424 10.544C27.152 11.008 26.672 11.264 26.176 11.264C25.936 11.264 25.68 11.2 25.456 11.072Z" fill="black"/>
</svg>
